# xmcd
#
# Track frame offsets: 
#        150
#        16962
#        30225
#        44923
#        98288
#        120148
#        141438
#        189765
#        217397
#        239277
#        268115
#
# Disc length: 3845 seconds
#
# Revision: 2
# Processed by: cddbd v1.5.2PL0 Copyright (c) Steve Scherf et al.
# Submitted via: ExactAudioCopy v0.99pb5
#
DISCID=910f030b
DTITLE=Various Artist - Blues Jam 2
DYEAR=2005
DGENRE=Blues
TTITLE0=Eric Clapton - Teraplane Blues (1993)
TTITLE1=Eric Clapton - From Four Until Late (1995)
TTITLE2=Eric Clapton - 32-20 (1993)
TTITLE3=Eric Clapton and Jimmie Vaughan - Sweet Home Chicago (1994)
TTITLE4=Eric Clapton and David Sanborn - Crossroads (1999)
TTITLE5=Eric Clapton and David Sanborn - Coin' Down Slow (1999)
TTITLE6=Eric Clapton and Robert Cray - Ramblin' (Have You Ever Loved The
TTITLE6=Woman) (1986)
TTITLE7=Eric Clapton and Buddy Guy - Stormy Monday (With B.Guy 1987)
TTITLE8=Eric Clapton - Third Degree (For War Child) (1996)
TTITLE9=Eric Clapton, B.B. King, Albert Collins, Buddy Guy and Jeff Beck
TTITLE9=Sweet Littla Angel (1993)
TTITLE10=Eric Clapton and Buckwheat Zydeco - Why Does Got To Be So Sad (
TTITLE10=1988)
EXTD=
EXTT0=
EXTT1=
EXTT2=
EXTT3=
EXTT4=
EXTT5=
EXTT6=
EXTT7=
EXTT8=
EXTT9=
EXTT10=
PLAYORDER=
